<svg xmlns="http://www.w3.org/2000/svg" width="21.818" height="13.262" viewBox="0 0 21.818 13.262">
  <path id="Trazado_7961" data-name="Trazado 7961" d="M21.527,16.773a12.26,12.26,0,0,0-21.236,0l-.291.5.291.5a12.26,12.26,0,0,0,21.236,0l.291-.5Zm-10.509,4.07a3.892,3.892,0,1,1,3.892-3.892,3.892,3.892,0,0,1-3.892,3.892ZM2.341,17.276a10.291,10.291,0,0,1,3.612-3.337,5.86,5.86,0,0,0,.79,7.067,10.3,10.3,0,0,1-4.4-3.73Zm13.118,3.548a5.878,5.878,0,0,0,.744-6.689,10.283,10.283,0,0,1,3.275,3.141,10.293,10.293,0,0,1-4.019,3.548Z" transform="translate(0 -10.642)" fill="#fea950"/>
</svg>
