<svg id="Capa_1" data-name="Capa 1" xmlns="http://www.w3.org/2000/svg" viewBox="0 0 595.28 595.28"><defs><style>.cls-1{fill:#fea950;}.cls-2,.cls-4,.cls-5{fill:#fff;}.cls-2{stroke:#fff;stroke-miterlimit:10;stroke-width:5px;}.cls-3,.cls-5{opacity:0.8;}</style></defs><circle class="cls-1" cx="301.58" cy="299.08" r="273.29"/><circle class="cls-2" cx="301.56" cy="302.38" r="206.21"/><g class="cls-3"><path class="cls-4" d="M233.67,533.16C107.74,492.5,30.6,360.4,69.17,230.88S243.12,32,371.45,66.38c7.29,2,10.65-9.3,3.33-11.26C240.62,19.18,98,91.8,57.91,227.56S98.18,501.75,230.35,544.43c7.19,2.32,10.51-8.94,3.32-11.27Z"/></g><g class="cls-3"><path class="cls-4" d="M456.33,111c121.81,106,115.55,290.45-13.61,387.77-6,4.55,2.07,13,8,8.55C584.71,406.43,591.13,212.82,464.89,103c-5.66-4.93-14.26,3.09-8.56,8Z"/></g><circle class="cls-5" cx="275.88" cy="546.46" r="10.52"/><circle class="cls-5" cx="391.36" cy="527.56" r="10.52"/><circle class="cls-5" cx="417.32" cy="78.33" r="10.52"/></svg>